/* XPM */
static char * lila[] = {
"170 73 71 1",
" 	c None",
".	c #333334",
"+	c #4D4C4D",
"@	c #202021",
"#	c #707171",
"$	c #C0BEBE",
"%	c #A4A9A6",
"&	c #F3B8B4",
"*	c #F8D9D6",
"=	c #845F4C",
"-	c #DF3450",
";	c #8B8D90",
">	c #FC5723",
",	c #D50227",
"'	c #F46D58",
")	c #EE8982",
"!	c #D9D9D8",
"~	c #EEEEED",
"{	c #0D0D0D",
"]	c #610B16",
"^	c #000000",
"/	c #360708",
"(	c #830F17",
"_	c #FAF9F7",
":	c #FFFFFF",
"<	c #F6EDF9",
"[	c #C471DB",
"}	c #B43CBE",
"|	c #9D14AE",
"1	c #EFDEF9",
"2	c #DAC5FB",
"3	c #BBA8EC",
"4	c #8C1EFD",
"5	c #18033F",
"6	c #A044FE",
"7	c #570C74",
"8	c #666666",
"9	c #BEBEBD",
"0	c #101010",
"a	c #4444FE",
"b	c #6565FE",
"c	c #2F2F2F",
"d	c #ADADAC",
"e	c #6E6E6D",
"f	c #807DFC",
"g	c #5F5F5E",
"h	c #37377F",
"i	c #1E1DFC",
"j	c #2726B3",
"k	c #6563C9",
"l	c #9BD79E",
"m	c #DDFFDC",
"n	c #6DFE6D",
"o	c #33BA34",
"p	c #739BCC",
"q	c #FAF95F",
"r	c #90FF89",
"s	c #314B14",
"t	c #53FE53",
"u	c #B1AF16",
"v	c #B8FFB8",
"w	c #FBFCA8",
"x	c #FEFF27",
"y	c #B62C20",
"z	c #DEDD1F",
"A	c #38FE38",
"B	c #737305",
"C	c #19FA19",
"D	c #033F03",
"E	c #267E26",
"F	c #3F77B8",
"                                                                                                                                                                          ",
"                                                                                   .++@                                                                                   ",
"                                                                                  .#$%#@                                                                                  ",
"                                                                                 @#$&*$=@                                                                                 ",
"                                                                                @+%&--&%+                                                                                 ",
"                                                                                .;&>,,'&;.                                                                                ",
"                                                                               @#$),,,,)$#@                                                                               ",
"                                                                              @+%&-,,,,,&%+@                                                                              ",
"                                                                              .;&-,,,,,,-&;+                                                                              ",
"                                                                             @#$),,,,,,,,)$#.                                                                             ",
"                                                                            @+%&,,,,,,,,,,&$+@                                                                            ",
"                                                                           @+%*-,,,,,,,,,,-&%+                                                                            ",
"                                                                         @+#$*),,,,,,,,,,,,'!%#@                                                                          ",
"                                                                        .;$~*),,,,,,,,,,,,,,)~!%=@                                                                        ",
"                                                                      @#$~!#{],,,,,,,,,,,,,,].$~!;+                                                                       ",
"                                                                     .;!!=^^/,,,,,,,,,,,,,,,,/^@%~$#@                                                                     ",
"                                                                    +%~%@^^^,,,,,,,,,,,,,,,,,,^^^+!!;.                                                                    ",
"                                                                   +%~#^^^^(,,,,,,,,,,,,,,,,,,(^^^{%!;+                                                                   ",
"                                                                  +%~+^^^^/,,,-----------------@^^^^;_$+                                                                  ",
"                                                                 .;~+^^^^^^^@!:::::::::::::::::<#^^^^.!%+                                                                 ",
"                                                                @#~#^^^^^^^^$::____:__:________::%^^^^+~;@                                                                ",
"                                                                +!;^^^^^^^^.::::::::::::::::::::::${^^^#!#                                                                ",
"                                                               @%!{^^^^^^^^;::::::::[}||}&:::::::::$^^^^%$+                                                               ",
"                                                               #!+^^^^^^^^^$12::::1}|||[1<::::::::::;^^^@!;@                                                              ",
"                                                              .%$^^^^^^^^^{341:::1||||[::::::::::::::=^^^#$+                                                              ",
"                                                              +!+^^^^^^^^^546::::}|||}<::::::::::::::~{^^{$;@                                                             ",
"                                                             @;$^^^^^^^^^^74[:::1}}|}}<:::<*~:::::::::;^^^#$+                                                             ",
"                 .;#    @^@                                  .$#^^^^^^^^^^444<::3}|}}}2:&---,-)<::::::_@^^.$#          +;#         ;@                                     ",
"                 +^8@   @^.                                  +!.^^^^^^^^^544461:3}}}}}[)---,-,,-*::::::;^^^%;.         #^^         $^                                     ",
"                  .^@   .+   ...=  .. .. @+@ +.              #${^^^^^^^^^544446[6}}}}}}-----,-,,-<:::::!{^^#$+          #9    +#.  ^^..   .^+.                            ",
"                  .^@  @^0+  #^^^; ^^ ;^ .^^@_;             @;%^^^^^^^^^^^4446466}}}3)-------'&&-'::::::.^^.$+          #^   ^^$^. ^^^!; +^^$^                            ",
"                  .^@   .^+   !^{^ @^  ^@^.^^^              @%;^^^^^^^^^^^744466[[}[1&-'----)_:::)::::::=^^@%#@         #9   .++^# ^^^^$+#^@@+                            ",
"                  .^@    ^+  @^^^^ @^  ^@^^;^               .%=^^^^^^^^^^^54666621[[[''')-->::::::::::::;^^@%;@         #^   %!%^# ^^^^;;^^^^#                            ",
"                  +^.   @^+   %^^% @^  ${^.%^^              .$+^^^^^^^^^^^^746aab[[[[['3:)>'*:::::::::::%^^{;;@         #c@ +8.^^; ^%^^$++.{@^                            ",
"                 d888% %000e #^.+^= ^^^^=.^^ _%             .$+^^^^^^^5^^^^^7aaaabf[3)'))'''>'&:::::::::$^^{;;.       @g^^^#{^^^^^@$~%%$ ;^^^^                            ",
"                 .+++. @+++. .=@@+. @#....=. ++             .$h^h@^^^^i^^^^^jaaffbk{{+))')'''>>)::::::::l{^{#%.        ++++@^@#.@+{+@##  @+^^                             ",
"                 =##########@                               .$k^kb^^^^ii5^5jiab:3bb@^+))))''>>>>&::::::mno^@#%.       @###########.                                       ",
"                 d^^^^^^^^^^+                               +$#hbfh^^^5iiiiiaaabbbpn%qqq:&'''>>>>_::::_rnns@#%.       +^^^^^^^^^^^+                                       ",
"                                                           @#$kbbbf@^^^iiiiiiaaaaantrqqqqu>'>>>>>&::::vnnnts;%.                                                           ",
"                                                           +%3bbbbfb^^^5iiiiaiaaa3vttwqqxx)yy)'>>&:::mnnnnto%$+                                                           ",
"                                                          .#3babbbbfh^^^5iiiiiaaovrttvwqxqz{^.~'>):::rnnntttov#.                                                          ",
"                                                         @+$fababbbff@^^^^5jjj@AAAAtAvxxqxxB^^$*>&::vrnnnntttl$+@                                                         ",
"                                                         .;3baabbbbbfk^^^^^^^^^oAAAAAxxxxxxu^^#~>_:_rnnnntttAAl;.                                                         ",
"                                                        @#3baaababbfffh^^^^^^^{CAAAAAuxxxxxu^^+*&::vnnnnntttttol#@                                                        ",
"                                                        +%faaaaabbbbbff@^^^^^^DCCACAE^+xxxxu^^.:::mnnnnnttttAAAl%+@                                                       ",
"                                                       .;3aiaaaaabbbfffk^{DD{ECCCCCC{^^uxxxB^^.::_rnrnnntttAAAAol;.                                                       ",
"                                                      @=%biaiaaababbbbffh^DCCCCCCCoD^^^Bxxx@^^+::vnnnnntttttAAACtl#@                                                      ",
"                                                      +;piiiaaaaaabbbbbff{^{EoCCoD{^^^^BxxB^^^;:mrnnnnnttttAAAACCl%+                                                      ",
"                                                     @#3aiiiaiaaababbbbffk^^^^^^^^^^^^{zxB^^^{!:rnnnntttttAAAACACol#.                                                     ",
"                                                     +pfiiiiiaaaaaabbbbbbf.^^^^^^^^^^@uus^^^^;:vnnnnnttttAAAAACCCCt$+                                                     ",
"                                                    @#3iiiiiiiiaaaaabbbbffb{^^^^^^^^^^^^^^^^.:mrnnnntnttAtAAAACCCCCl;@                                                    ",
"                                                    @#3ajjjjjjhjhhahahhhhhh@^^^^^^^^^^^^^^^._:!EEEEEooooooooooooooE#%+                                                    ",
"                                                     +;%;F;;;;p;pp;;%;+^^^^^^^^^^^^^^^^^^^+~!#{^^^{@.#%%%%%%%%%%o%%p#+                                                    ",
"                                                      .+###;#;#;#;#;;%$#{^^^^^^^^^^^^^^^^@#.^^^^^@.+%$;###########++s@                                                    ",
"                                                       @@@.@.@.@.@.@@+#$%.^^^^^^^^^^^^^^^^^^^^^{.+#%;+...@..@..@.@@@                                                      ",
"                                                                      .+;$#@^^^^^^^^^^^^^^^^^{@++;%#.@                                                                    ",
"                                                                       @.#%$#+{{^^^^^^^^^^{@.++;%;+.                                                                      ",
"                                                                         @+#%$;#+.@@@@@@..+=#%%;=.@                                                                       ",
"                                                                           @.#;%%%%;;#;;;%%%;#+.@                                                                         ",
"                                                                             @@+=##;;;;;;##+.@@                                                                           ",
"                                                                                 @@@..@@@@                                                                                ",
"                                                                                                                                                                          ",
"                                                                                                                                                                          ",
"                                                                                                                                                                          ",
"                                                                                                                                                                          ",
"                                                                                                                                                                          ",
"                                                                                                                                                                          ",
"                                                                                                                                                                          ",
"                                                                                                                                                                          ",
"                                                                                                                                                                          ",
"                                                                                                                                                                          ",
"                                                                                                                                                                          ",
"                                                                                                                                                                          "};
