/* XPM */
static char * xpm_paused[] = {
"16 16 2 1",
" 	c None",
".	c #FFFF00",
"                ",
"                ",
"                ",
"   .            ",
"   ...          ",
"   .....        ",
"   .......      ",
"   .........    ",
"   .......      ",
"   .....        ",
"   ....         ",
"   ..           ",
"   .            ",
"                ",
"                ",
"                "};
